<svg width="26" height="26" viewBox="0 0 26 26" fill="none" xmlns="http://www.w3.org/2000/svg">
<path d="M14.285 0.409733C15.1972 0.406251 16.1093 0.415371 17.0212 0.437088L17.2637 0.445792C17.5437 0.45574 17.82 0.468174 18.1537 0.483095C19.4837 0.545266 20.3912 0.754161 21.1875 1.06129C22.0125 1.37711 22.7075 1.80485 23.4025 2.49619C24.038 3.11741 24.5298 3.86886 24.8437 4.69829C25.1525 5.49035 25.3625 6.39432 25.425 7.71732C25.44 8.04807 25.4525 8.32411 25.4625 8.60263L25.47 8.84386C25.4922 9.75055 25.5018 10.6575 25.4987 11.5645L25.5 12.4921V14.1209C25.5031 15.0283 25.4935 15.9357 25.4712 16.8428L25.4637 17.084C25.4537 17.3625 25.4412 17.6373 25.4262 17.9693C25.3637 19.2923 25.1512 20.195 24.8437 20.9871C24.5308 21.8174 24.0389 22.5695 23.4025 23.1905C22.7774 23.8225 22.0216 24.3117 21.1875 24.6241C20.3912 24.9312 19.4837 25.1401 18.1537 25.2023C17.82 25.2172 17.5437 25.2297 17.2637 25.2396L17.0212 25.2471C16.1093 25.2692 15.1972 25.2787 14.285 25.2757L13.3525 25.2769H11.7162C10.8041 25.28 9.8919 25.2704 8.97999 25.2483L8.73749 25.2409C8.44075 25.2302 8.14408 25.2177 7.84749 25.2036C6.51749 25.1414 5.60999 24.93 4.81249 24.6241C3.97834 24.3124 3.22279 23.8231 2.59874 23.1905C1.96255 22.5691 1.47027 21.8172 1.15624 20.9871C0.847489 20.195 0.637489 19.2923 0.574989 17.9693C0.561067 17.6743 0.548567 17.3792 0.537489 17.084L0.531239 16.8428C0.508193 15.9357 0.497776 15.0283 0.499989 14.1209V11.5645C0.4965 10.6575 0.505668 9.75056 0.527489 8.84386L0.536239 8.60263C0.546239 8.32411 0.558739 8.04807 0.573739 7.71732C0.636239 6.39307 0.846239 5.49159 1.15499 4.69829C1.4692 3.86846 1.96244 3.11721 2.59999 2.49744C3.22361 1.86423 3.97869 1.3741 4.81249 1.06129C5.60999 0.754161 6.51624 0.545266 7.84749 0.483095L8.73749 0.445792L8.97999 0.439575C9.89147 0.416663 10.8032 0.4063 11.715 0.40849L14.285 0.409733ZM13 6.62684C12.1719 6.61519 11.3497 6.76737 10.5812 7.07455C9.81273 7.38173 9.1133 7.83778 8.52355 8.41619C7.93379 8.9946 7.46549 9.68384 7.14585 10.4438C6.82621 11.2039 6.6616 12.0195 6.6616 12.8433C6.6616 13.6672 6.82621 14.4828 7.14585 15.2428C7.46549 16.0028 7.93379 16.692 8.52355 17.2705C9.1133 17.8489 9.81273 18.3049 10.5812 18.6121C11.3497 18.9193 12.1719 19.0715 13 19.0598C14.6576 19.0598 16.2473 18.4048 17.4194 17.2389C18.5915 16.0729 19.25 14.4916 19.25 12.8427C19.25 11.1938 18.5915 9.61248 17.4194 8.44654C16.2473 7.28061 14.6576 6.62684 13 6.62684ZM13 9.11368C13.4981 9.10455 13.9931 9.19425 14.456 9.37754C14.9189 9.56084 15.3404 9.83405 15.696 10.1812C16.0515 10.5284 16.334 10.9425 16.5268 11.3995C16.7196 11.8565 16.819 12.3471 16.8191 12.8427C16.8192 13.3383 16.72 13.8289 16.5273 14.286C16.3346 14.743 16.0523 15.1573 15.6969 15.5045C15.3414 15.8518 14.92 16.1252 14.4571 16.3086C13.9943 16.4921 13.4994 16.5819 13.0012 16.573C12.0067 16.573 11.0528 16.18 10.3496 15.4804C9.64633 14.7808 9.25124 13.832 9.25124 12.8427C9.25124 11.8534 9.64633 10.9046 10.3496 10.205C11.0528 9.50545 12.0067 9.11244 13.0012 9.11244L13 9.11368ZM19.5625 4.76171C19.1592 4.77776 18.7779 4.94841 18.4982 5.2379C18.2186 5.5274 18.0625 5.91328 18.0625 6.31474C18.0625 6.7162 18.2186 7.10208 18.4982 7.39158C18.7779 7.68107 19.1592 7.85172 19.5625 7.86777C19.9769 7.86777 20.3743 7.70402 20.6673 7.41254C20.9604 7.12105 21.125 6.72572 21.125 6.3135C21.125 5.90128 20.9604 5.50594 20.6673 5.21446C20.3743 4.92297 19.9769 4.75922 19.5625 4.75922V4.76171Z" fill="white"/>
</svg>
