<svg width="32" height="33" viewBox="0 0 32 33" fill="none" xmlns="http://www.w3.org/2000/svg">
<path d="M16 22.9448C17.7681 22.9448 19.4638 22.2334 20.714 20.9672C21.9643 19.7009 22.6666 17.9834 22.6666 16.1926C22.6666 14.4018 21.9643 12.6844 20.714 11.4181C19.4638 10.1518 17.7681 9.44043 16 9.44043C14.2319 9.44043 12.5362 10.1518 11.2859 11.4181C10.0357 12.6844 9.33331 14.4018 9.33331 16.1926C9.33331 17.9834 10.0357 19.7009 11.2859 20.9672C12.5362 22.2334 14.2319 22.9448 16 22.9448Z" stroke="white" stroke-width="1.5" stroke-linecap="round" stroke-linejoin="round"/>
<path d="M1 22.9447V9.44025C1 7.20176 1.87797 5.05495 3.44078 3.47209C5.00358 1.88924 7.1232 1 9.33333 1H22.6667C24.8768 1 26.9964 1.88924 28.5592 3.47209C30.122 5.05495 31 7.20176 31 9.44025V22.9447C31 25.1832 30.122 27.33 28.5592 28.9128C26.9964 30.4957 24.8768 31.3849 22.6667 31.3849H9.33333C7.1232 31.3849 5.00358 30.4957 3.44078 28.9128C1.87797 27.33 1 25.1832 1 22.9447Z" stroke="white" stroke-width="1.5"/>
<path d="M25.1667 6.92507L25.1834 6.90674" stroke="white" stroke-width="1.5" stroke-linecap="round" stroke-linejoin="round"/>
</svg>
