<svg width="26" height="26" viewBox="0 0 26 26" fill="none" xmlns="http://www.w3.org/2000/svg">
<path d="M13.001 0.408203C19.9047 0.408203 25.501 5.975 25.501 12.8424C25.501 19.7098 19.9047 25.2766 13.001 25.2766C10.792 25.2802 8.62181 24.6986 6.71349 23.5918L0.505994 25.2766L2.19599 19.0993C1.08236 17.2004 0.497304 15.0408 0.500994 12.8424C0.500994 5.975 6.09724 0.408203 13.001 0.408203ZM8.74099 6.99833L8.49099 7.00828C8.32914 7.01809 8.17097 7.06038 8.02599 7.13262C7.89039 7.20901 7.76661 7.30449 7.65849 7.41612C7.50849 7.55663 7.42349 7.67849 7.33224 7.79661C6.8699 8.39458 6.62096 9.1287 6.62474 9.88307C6.62724 10.4923 6.78724 11.0855 7.03724 11.64C7.54849 12.7616 8.38974 13.9491 9.49974 15.0495C9.76724 15.3143 10.0297 15.5804 10.3122 15.8279C11.6915 17.0358 13.3351 17.9069 15.1122 18.3719L15.8222 18.4801C16.0535 18.4925 16.2847 18.4751 16.5172 18.4639C16.8813 18.4452 17.2368 18.3472 17.5585 18.1767C17.7222 18.0928 17.8819 18.0015 18.0372 17.9031C18.0372 17.9031 18.091 17.8683 18.1935 17.7912C18.3622 17.6669 18.466 17.5786 18.606 17.4331C18.7097 17.3262 18.7997 17.2006 18.8685 17.0576C18.966 16.8549 19.0635 16.4682 19.1035 16.1462C19.1335 15.9 19.1247 15.7657 19.121 15.6824C19.116 15.5493 19.0047 15.4113 18.8835 15.3529L18.156 15.0283C18.156 15.0283 17.0685 14.5571 16.4035 14.2562C16.3339 14.226 16.2593 14.2087 16.1835 14.2052C16.098 14.1965 16.0116 14.206 15.9301 14.2333C15.8486 14.2605 15.7739 14.3048 15.711 14.3631C15.7047 14.3606 15.621 14.4315 14.7172 15.5207C14.6654 15.5901 14.5939 15.6425 14.512 15.6713C14.4301 15.7001 14.3414 15.7039 14.2572 15.6824C14.1758 15.6607 14.096 15.6332 14.0185 15.6003C13.8635 15.5357 13.8097 15.5108 13.7035 15.466C12.9861 15.1546 12.3219 14.7338 11.7347 14.2189C11.5772 14.0821 11.431 13.9329 11.281 13.7887C10.7892 13.3202 10.3606 12.7902 10.006 12.212L9.93224 12.0939C9.87927 12.0145 9.83644 11.9289 9.80474 11.839C9.75724 11.6562 9.88099 11.5095 9.88099 11.5095C9.88099 11.5095 10.1847 11.1787 10.326 10.9997C10.4635 10.8256 10.5797 10.6565 10.6547 10.5359C10.8022 10.2996 10.8485 10.0571 10.771 9.86939C10.421 9.01889 10.0585 8.17212 9.68599 7.33157C9.61224 7.16495 9.39349 7.04558 9.19474 7.02196C9.12724 7.0145 9.05974 7.00704 8.99224 7.00206C8.82438 6.99377 8.65616 6.99543 8.48849 7.00704L8.73974 6.99709L8.74099 6.99833Z" fill="white"/>
</svg>
