<svg width="36" height="36" viewBox="0 0 36 36" fill="none" xmlns="http://www.w3.org/2000/svg">
<path d="M26.2916 23.1665H24.6458L24.0624 22.604C25.3644 21.0914 26.316 19.3098 26.849 17.3865C27.382 15.4633 27.4834 13.446 27.1458 11.479C26.1666 5.68734 21.3333 1.06234 15.4999 0.354005C6.68745 -0.729328 -0.708386 6.68734 0.354114 15.4998C1.06245 21.3332 5.68745 26.1665 11.4791 27.1457C13.4461 27.4833 15.4634 27.3819 17.3866 26.8489C19.3099 26.3159 21.0915 25.3643 22.6041 24.0623L23.1666 24.6457V26.2915L32.0416 35.1457C32.8958 35.9998 34.2708 35.9998 35.1249 35.1457L35.1458 35.1248C35.9999 34.2707 35.9999 32.8957 35.1458 32.0415L26.2916 23.1665ZM13.7916 23.1665C8.60411 23.1665 4.41661 18.979 4.41661 13.7915C4.41661 8.604 8.60411 4.4165 13.7916 4.4165C18.9791 4.4165 23.1666 8.604 23.1666 13.7915C23.1666 18.979 18.9791 23.1665 13.7916 23.1665ZM13.7916 8.58317C13.2083 8.58317 12.7499 9.0415 12.7499 9.62484V12.7498H9.62495C9.04161 12.7498 8.58328 13.2082 8.58328 13.7915C8.58328 14.3748 9.04161 14.8332 9.62495 14.8332H12.7499V17.9582C12.7499 18.5415 13.2083 18.9998 13.7916 18.9998C14.3749 18.9998 14.8333 18.5415 14.8333 17.9582V14.8332H17.9583C18.5416 14.8332 18.9999 14.3748 18.9999 13.7915C18.9999 13.2082 18.5416 12.7498 17.9583 12.7498H14.8333V9.62484C14.8333 9.0415 14.3749 8.58317 13.7916 8.58317Z" fill="white"/>
</svg>
