<svg width="18" height="16" viewBox="0 0 18 16" fill="none" xmlns="http://www.w3.org/2000/svg">
<path d="M9.5875 1.08753C9.76328 0.911966 10.0016 0.813354 10.25 0.813354C10.4984 0.813354 10.7367 0.911966 10.9125 1.08753L17.1625 7.33753C17.3381 7.51331 17.4367 7.75159 17.4367 8.00003C17.4367 8.24847 17.3381 8.48675 17.1625 8.66253L10.9125 14.9125C10.8267 15.0046 10.7232 15.0785 10.6082 15.1298C10.4932 15.181 10.369 15.2085 10.2432 15.2108C10.1173 15.213 9.99224 15.1898 9.8755 15.1427C9.75877 15.0955 9.65273 15.0254 9.5637 14.9363C9.47468 14.8473 9.4045 14.7413 9.35735 14.6245C9.3102 14.5078 9.28704 14.3828 9.28926 14.2569C9.29148 14.131 9.31903 14.0069 9.37027 13.8919C9.42151 13.7769 9.49539 13.6734 9.5875 13.5875L14.2375 8.93753H1.5C1.25136 8.93753 1.0129 8.83876 0.837087 8.66294C0.661272 8.48713 0.5625 8.24867 0.5625 8.00003C0.5625 7.75139 0.661272 7.51293 0.837087 7.33712C1.0129 7.1613 1.25136 7.06253 1.5 7.06253H14.2375L9.5875 2.41253C9.41194 2.23675 9.31333 1.99847 9.31333 1.75003C9.31333 1.50159 9.41194 1.26331 9.5875 1.08753Z" fill="#00525B"/>
</svg>
