<svg width="50" height="50" viewBox="0 0 50 50" fill="none" xmlns="http://www.w3.org/2000/svg">
<g clip-path="url(#clip0_0_17068)">
<path d="M9.375 0H12.5V9.375H9.375V0ZM34.375 0H37.5V9.375H34.375V0Z" fill="#00525B"/>
<path d="M20.625 43.75H3.125V18.75H43.75V20.625C45 21.25 45.9375 21.875 46.875 22.8125V3.125H40.625V12.5H31.25V3.125H15.625V12.5H6.25V3.125H0V46.875H22.8125C21.875 45.9375 21.25 45 20.625 43.75Z" fill="#00525B"/>
<path d="M43.75 37.5H34.375V28.125H37.5V34.375H43.75V37.5Z" fill="#00525B"/>
<path d="M35.9375 25C41.875 25 46.875 30 46.875 35.9375C46.875 41.875 41.875 46.875 35.9375 46.875C30 46.875 25 41.875 25 35.9375C25 30 30 25 35.9375 25ZM35.9375 21.875C28.125 21.875 21.875 28.125 21.875 35.9375C21.875 43.75 28.125 50 35.9375 50C43.75 50 50 43.75 50 35.9375C50 28.125 43.75 21.875 35.9375 21.875Z" fill="#00525B"/>
</g>
<defs>
<clipPath id="clip0_0_17068">
<rect width="50" height="50" fill="white"/>
</clipPath>
</defs>
</svg>
