<svg width="257" height="215" viewBox="0 0 257 215" fill="none" xmlns="http://www.w3.org/2000/svg">
<g opacity="0.3">
<path d="M225.633 1.69352C224.678 1.0743 223.505 1.04095 222.494 1.59773L161.477 36.155C160.493 36.7046 159.917 37.7217 159.91 38.8559C159.919 40.0003 160.506 41.0093 161.499 41.5453L181.473 52.5439L183.07 69.1262C183.122 69.7448 183.551 70.2363 184.167 70.3703C184.386 70.431 184.615 70.4156 184.82 70.3623C185.066 70.2984 185.285 70.1827 185.459 70.0052L196.176 60.6332L216.756 71.9596C217.448 72.3386 218.228 72.43 218.966 72.2382C219.203 72.1766 219.433 72.0874 219.656 71.9706C220.565 71.4698 221.168 70.5632 221.258 69.5253L227.018 4.55377C227.122 3.39474 226.606 2.32298 225.633 1.69352ZM226.17 4.48014L220.423 69.4481C220.35 70.2024 219.917 70.8589 219.265 71.2195C218.609 71.5664 217.822 71.5649 217.165 71.2064L192.195 57.4625L219.463 12.1335C219.576 11.9426 219.531 11.7043 219.366 11.5706C219.188 11.4404 218.945 11.4594 218.799 11.6298L181.782 51.7431L161.908 40.7922C161.185 40.4065 160.77 39.6763 160.768 38.8534C160.753 38.034 161.182 37.3049 161.896 36.8989L222.913 2.34168C223.64 1.93209 224.478 1.96431 225.173 2.4159C225.869 2.86749 226.25 3.63591 226.17 4.48014ZM182.556 52.1595L216.604 15.2583L191.452 57.0527L182.556 52.1595ZM186.709 67.7836L191.786 58.2156L195.385 60.2065L186.709 67.7836ZM184.353 69.5426C184.155 69.506 183.939 69.3415 183.907 69.0409L182.384 53.0425L191.043 57.8059L184.971 69.279C184.804 69.543 184.551 69.5793 184.353 69.5426Z" fill="#00525B"/>
<path d="M-103.261 214.032C-103.34 214.053 -103.416 214.058 -103.488 214.049C-103.814 214.006 -104.057 213.709 -104.018 213.36C-103.945 212.727 -103.872 212.094 -103.775 211.475C-103.731 211.146 -103.435 210.9 -103.089 210.937C-102.758 211 -102.515 211.297 -102.574 211.651C-102.651 212.264 -102.729 212.877 -102.802 213.511C-102.841 213.775 -103.024 213.971 -103.261 214.032ZM27.3344 179.661C27.3213 179.665 27.3081 179.668 27.2949 179.671C26.475 179.842 25.6203 179.958 24.7804 180.048C24.4543 180.091 24.1426 179.854 24.1024 179.525C24.077 179.172 24.3186 178.876 24.6447 178.834C25.4648 178.748 26.275 178.623 27.0752 178.457C27.4161 178.39 27.7228 178.607 27.7877 178.95C27.8476 179.274 27.6505 179.579 27.3344 179.661ZM33.3202 177.854C33.0239 177.931 32.7123 177.779 32.5981 177.491C32.4789 177.183 32.6215 176.828 32.9425 176.681C33.6881 176.382 34.4435 176.037 35.1692 175.658C35.4654 175.497 35.8363 175.634 35.9949 175.931C36.1339 176.234 36.016 176.604 35.7198 176.765C34.9546 177.154 34.1794 177.504 33.3992 177.833C33.3729 177.84 33.3466 177.847 33.3202 177.854ZM18.6284 180.183C18.5757 180.197 18.5131 180.199 18.4406 180.189C17.6104 180.151 16.7652 180.052 15.92 179.954C15.574 179.916 15.3461 179.594 15.3899 179.265C15.4338 178.936 15.7496 178.685 16.0758 178.727C16.9012 178.831 17.7217 178.914 18.5322 178.958C18.8584 179.001 19.1159 179.273 19.0968 179.617C19.0825 179.896 18.8852 180.116 18.6284 180.183ZM40.9121 173.469C40.675 173.531 40.4229 173.448 40.2693 173.255C40.0711 172.967 40.1248 172.593 40.3912 172.397C41.0426 171.889 41.6939 171.381 42.3155 170.839C42.577 170.623 42.9625 170.65 43.1755 170.912C43.4082 171.17 43.3596 171.563 43.1178 171.774C42.4567 172.327 41.7906 172.86 41.1195 173.373C41.0471 173.42 40.978 173.452 40.9121 173.469ZM10.0372 178.726C9.93185 178.754 9.82643 178.753 9.72095 178.724C8.92989 178.505 8.1141 178.272 7.29333 178.019C6.97192 177.912 6.80328 177.574 6.91138 177.25C6.99973 176.93 7.35022 176.734 7.67162 176.841C8.45288 177.104 9.26369 177.317 10.035 177.541C10.3712 177.623 10.5596 177.955 10.4712 178.275C10.4025 178.505 10.2348 178.675 10.0372 178.726ZM76.8471 160.27C76.5112 160.357 76.1897 160.165 76.105 159.827C76.0254 159.508 76.2125 159.163 76.5484 159.076C77.3386 158.871 78.1239 158.646 78.929 158.416C79.2401 158.314 79.5814 158.501 79.6808 158.814C79.7852 159.147 79.5981 159.492 79.2672 159.599C78.4621 159.829 77.6373 160.065 76.8471 160.27ZM70.7219 161.52C70.6955 161.527 70.6692 161.534 70.6429 161.54C70.1538 161.604 69.6449 161.672 69.1558 161.736C68.8133 161.768 68.4707 161.8 68.1282 161.833C67.7971 161.855 67.5051 161.613 67.465 161.285C67.4396 160.931 67.7009 160.63 68.032 160.608C68.3614 160.579 68.6891 160.543 69.0151 160.501C69.5092 160.458 69.9983 160.394 70.4824 160.311C70.8085 160.269 71.1202 160.506 71.1604 160.834C71.2203 161.158 71.0182 161.443 70.7219 161.52ZM47.3249 167.484C47.1273 167.536 46.9246 167.482 46.7663 167.354C46.5188 167.122 46.4834 166.728 46.7152 166.478C47.2527 165.851 47.7901 165.224 48.2979 164.563C48.5049 164.298 48.8902 164.24 49.1575 164.467C49.4198 164.674 49.4749 165.063 49.2678 165.328C48.7403 165.995 48.1881 166.646 47.6309 167.278C47.552 167.383 47.4434 167.454 47.3249 167.484ZM85.1338 157.484C84.8572 157.556 84.5456 157.404 84.4314 157.116C84.2925 156.813 84.4549 156.453 84.756 156.311C85.5214 156.007 86.2818 155.682 87.057 155.333C87.3581 155.191 87.7093 155.333 87.8482 155.636C87.9921 155.959 87.8495 156.314 87.5483 156.455C86.7731 156.805 85.993 157.134 85.2128 157.464C85.1865 157.47 85.1601 157.477 85.1338 157.484ZM-101.981 205.948C-102.06 205.968 -102.151 205.97 -102.253 205.954C-102.565 205.887 -102.792 205.565 -102.729 205.231C-102.557 204.402 -102.366 203.569 -102.17 202.756C-102.107 202.421 -101.781 202.21 -101.445 202.292C-101.113 202.354 -100.9 202.702 -100.989 203.021C-101.185 203.834 -101.356 204.663 -101.533 205.471C-101.577 205.715 -101.744 205.886 -101.981 205.948ZM61.9811 161.987C61.9284 162.001 61.8741 162.008 61.8181 162.008C60.9879 161.97 60.1379 161.936 59.2976 161.857C58.9517 161.82 58.709 161.523 58.7331 161.199C58.7719 160.85 59.068 160.604 59.409 160.621C60.2294 160.705 61.0399 160.749 61.8702 160.788C62.2062 160.785 62.4687 161.077 62.4495 161.421C62.4352 161.7 62.238 161.921 61.9811 161.987ZM93.0678 153.71C92.7912 153.782 92.5093 153.664 92.3606 153.406C92.2216 153.103 92.3198 152.739 92.6358 152.572C93.3367 152.179 94.0772 151.775 94.8127 151.351C95.1089 151.189 95.4698 151.286 95.6285 151.584C95.8069 151.877 95.694 152.266 95.3978 152.428C94.6623 152.851 93.9268 153.275 93.2011 153.654C93.1518 153.681 93.1073 153.7 93.0678 153.71ZM1.78934 175.868C1.65104 175.903 1.52254 175.894 1.39886 175.821C0.627397 175.512 -0.134269 175.159 -0.915691 174.811C-1.22231 174.679 -1.35641 174.311 -1.20382 173.996C-1.07098 173.687 -0.705568 173.549 -0.393968 173.702C0.362721 174.035 1.12438 174.388 1.87609 174.701C2.18271 174.833 2.3316 175.176 2.20374 175.506C2.12005 175.676 1.96715 175.821 1.78934 175.868ZM100.615 149.231C100.358 149.298 100.101 149.195 99.9623 148.977C99.7641 148.689 99.8573 148.305 100.148 148.124C100.815 147.675 101.521 147.217 102.226 146.758C102.513 146.557 102.893 146.649 103.086 146.916C103.265 147.209 103.191 147.588 102.9 147.77C102.199 148.248 101.474 148.712 100.788 149.165C100.739 149.192 100.681 149.214 100.615 149.231ZM53.3215 160.93C53.2425 160.95 53.1519 160.953 53.0498 160.937C52.2242 160.748 51.3986 160.56 50.5878 160.347C50.2713 160.26 50.078 159.907 50.1663 159.588C50.2547 159.268 50.5804 159.057 50.8968 159.144C51.2133 159.231 51.528 159.312 51.8411 159.386C52.2599 158.706 52.6687 157.985 53.0379 157.275C53.2153 156.975 53.5857 156.858 53.8775 157.015C54.1694 157.172 54.2837 157.545 54.1311 157.86C53.7962 158.455 53.4465 159.076 53.0919 159.676C53.1644 159.685 53.2385 159.702 53.3143 159.724C53.6456 159.787 53.8537 160.114 53.7703 160.453C53.7263 160.698 53.5389 160.873 53.3215 160.93ZM107.875 144.276C107.638 144.338 107.386 144.255 107.227 144.042C107.034 143.774 107.102 143.375 107.369 143.179C108.046 142.692 108.724 142.206 109.402 141.719C109.688 141.518 110.059 141.57 110.257 141.858C110.45 142.125 110.397 142.499 110.11 142.701C109.436 143.2 108.76 143.693 108.082 144.18C108.01 144.227 107.941 144.259 107.875 144.276ZM-99.7836 197.413C-99.8889 197.44 -99.996 197.433 -100.105 197.39C-100.441 197.308 -100.615 196.951 -100.507 196.626C-100.246 195.817 -99.9857 195.008 -99.7006 194.214C-99.5925 193.89 -99.2518 193.738 -98.9304 193.845C-98.609 193.952 -98.4354 194.31 -98.5485 194.614C-98.8336 195.408 -99.099 196.197 -99.3396 197.001C-99.4133 197.211 -99.586 197.362 -99.7836 197.413ZM-6.08975 172.044C-6.22805 172.08 -6.3763 172.076 -6.52471 171.988C-7.22711 171.619 -7.93448 171.231 -8.71606 170.798C-9.01289 170.621 -9.12723 170.248 -8.9499 169.948C-8.79232 169.653 -8.41696 169.556 -8.12512 169.713C-7.34353 170.146 -6.63616 170.534 -5.93377 170.903C-5.64192 171.06 -5.52756 171.433 -5.68514 171.728C-5.76883 171.898 -5.91194 171.998 -6.08975 172.044ZM44.9803 158.37C44.8618 158.401 44.7185 158.417 44.5998 158.363C43.8234 158.035 43.0469 157.707 42.2853 157.354C41.9787 157.222 41.8445 156.854 41.9774 156.544C42.13 156.229 42.4756 156.097 42.7822 156.229C43.5439 156.583 44.3006 156.916 45.0473 157.209C45.3737 157.336 45.5276 157.699 45.3947 158.009C45.316 158.199 45.1581 158.324 44.9803 158.37ZM114.936 139.034C114.699 139.095 114.452 139.032 114.294 138.819C114.1 138.552 114.149 138.158 114.415 137.961C115.087 137.448 115.751 136.937 116.409 136.428C116.675 136.231 117.066 136.278 117.259 136.546C117.472 136.808 117.423 137.202 117.157 137.398C116.486 137.911 115.821 138.423 115.163 138.932C115.094 138.993 115.019 139.026 114.936 139.034ZM56.3743 152.449C56.2558 152.479 56.1273 152.47 55.9889 152.422C55.6822 152.289 55.5333 151.947 55.6612 151.617C55.9563 150.863 56.2414 150.068 56.5067 149.279C56.6396 148.97 56.9753 148.798 57.2967 148.905C57.6181 149.012 57.7868 149.35 57.6787 149.674C57.3985 150.488 57.0936 151.288 56.7838 152.067C56.7051 152.257 56.5521 152.403 56.3743 152.449ZM121.874 133.633C121.637 133.694 121.39 133.631 121.256 133.433C121.038 133.151 121.092 132.777 121.353 132.561C122.008 132.038 122.656 131.517 123.297 130.997C123.578 130.776 123.949 130.828 124.162 131.09C124.375 131.353 124.326 131.747 124.065 131.963C123.41 132.486 122.756 133.009 122.101 133.531C122.029 133.578 121.953 133.612 121.874 133.633ZM-13.7028 167.771C-13.8609 167.812 -14.0141 167.788 -14.1576 167.72C-14.8798 167.3 -15.6004 166.887 -16.3193 166.48C-16.6162 166.303 -16.7305 165.93 -16.5532 165.63C-16.3956 165.335 -16.0203 165.237 -15.7284 165.395C-14.993 165.811 -14.2658 166.223 -13.5469 166.629C-13.25 166.806 -13.1554 167.184 -13.313 167.479C-13.4017 167.629 -13.5448 167.73 -13.7028 167.771ZM-96.6463 189.185C-96.7648 189.216 -96.9181 189.192 -97.0368 189.138C-97.3434 189.006 -97.4775 188.638 -97.3447 188.329C-96.9903 187.559 -96.636 186.789 -96.2569 186.034C-96.1043 185.719 -95.7339 185.602 -95.4223 185.754C-95.1304 185.911 -95.0161 186.284 -95.1539 186.574C-95.538 187.309 -95.8923 188.079 -96.2319 188.824C-96.3106 189.014 -96.4685 189.139 -96.6463 189.185ZM37.1999 154.437C37.0418 154.478 36.8688 154.459 36.7154 154.351C35.9981 153.923 35.2906 153.45 34.6028 152.971C34.3207 152.769 34.2657 152.381 34.448 152.101C34.655 151.835 35.0354 151.758 35.3124 151.94C35.9805 152.423 36.6633 152.882 37.3608 153.315C37.6577 153.492 37.7325 153.875 37.5502 154.155C37.4813 154.3 37.3382 154.401 37.1999 154.437ZM128.693 128.093C128.476 128.15 128.223 128.067 128.075 127.894C127.862 127.631 127.891 127.242 128.152 127.026C128.803 126.49 129.447 125.949 130.081 125.403C130.343 125.187 130.728 125.214 130.941 125.476C131.154 125.739 131.125 126.128 130.864 126.344C130.216 126.893 129.573 127.434 128.935 127.967C128.866 128.027 128.785 128.069 128.693 128.093ZM58.9578 144.026C58.8656 144.05 58.7733 144.045 58.681 144.013C58.3498 143.951 58.1417 143.623 58.2053 143.289C58.4014 142.476 58.558 141.673 58.7097 140.849C58.7733 140.515 59.0743 140.289 59.4253 140.346C59.7565 140.408 59.9646 140.736 59.9208 141.065C59.7494 141.893 59.583 142.741 59.4066 143.549C59.3626 143.794 59.1751 143.969 58.9578 144.026ZM-21.3357 163.503C-21.474 163.539 -21.642 163.54 -21.7657 163.466C-22.5175 163.068 -23.2694 162.67 -23.9866 162.327C-24.2784 162.169 -24.3928 161.797 -24.2599 161.487C-24.1023 161.192 -23.7319 161.074 -23.4253 161.207C-22.7229 161.575 -21.9711 161.973 -21.1994 162.366C-20.9076 162.523 -20.7932 162.896 -20.9458 163.211C-21.0345 163.361 -21.1776 163.462 -21.3357 163.503ZM135.388 122.395C135.171 122.452 134.943 122.383 134.79 122.19C134.557 121.933 134.586 121.544 134.847 121.328C135.482 120.782 136.109 120.231 136.727 119.675C136.983 119.439 137.369 119.466 137.602 119.724C137.815 119.986 137.786 120.375 137.524 120.591C136.906 121.147 136.281 121.705 135.65 122.264C135.567 122.327 135.48 122.371 135.388 122.395ZM-92.4704 181.408C-92.6285 181.449 -92.8015 181.431 -92.9499 181.342C-93.227 181.16 -93.3216 180.782 -93.1442 180.482C-92.6909 179.771 -92.2179 179.055 -91.7349 178.379C-91.5328 178.094 -91.1525 178.016 -90.8704 178.219C-90.6131 178.406 -90.5383 178.789 -90.7206 179.069C-91.2036 179.745 -91.6618 180.436 -92.1151 181.147C-92.184 181.292 -92.3321 181.373 -92.4704 181.408ZM30.2372 149.148C30.0594 149.194 29.8369 149.146 29.6736 148.997C29.0646 148.414 28.4557 147.831 27.8616 147.222C27.6338 146.985 27.643 146.601 27.8748 146.35C28.1116 146.119 28.5118 146.121 28.7396 146.359C29.309 146.953 29.8981 147.541 30.4971 148.085C30.7643 148.312 30.7799 148.71 30.5481 148.961C30.4643 149.046 30.3557 149.117 30.2372 149.148ZM141.959 116.539C141.761 116.59 141.514 116.527 141.366 116.354C141.138 116.116 141.162 115.708 141.404 115.497C142.032 114.924 142.653 114.353 143.268 113.784C143.51 113.573 143.891 113.58 144.123 113.838C144.351 114.075 144.347 114.479 144.085 114.695C143.47 115.264 142.849 115.835 142.221 116.407C142.152 116.467 142.064 116.511 141.959 116.539ZM-29.2196 159.745C-29.3381 159.775 -29.4666 159.766 -29.6051 159.718C-30.3815 159.389 -31.153 159.081 -31.8947 158.808C-32.2211 158.681 -32.37 158.338 -32.2619 158.013C-32.134 157.684 -31.7933 157.532 -31.4719 157.639C-30.7055 157.927 -29.9093 158.25 -29.1328 158.578C-28.8262 158.711 -28.6723 159.073 -28.8052 159.383C-28.8839 159.573 -29.0418 159.698 -29.2196 159.745ZM-87.2308 174.351C-87.4086 174.397 -87.6261 174.369 -87.7697 174.216C-88.032 174.008 -88.0476 173.61 -87.8405 173.344C-87.2635 172.707 -86.7063 172.076 -86.1194 171.479C-85.8876 171.228 -85.4923 171.21 -85.2448 171.442C-85.0121 171.7 -85.0015 172.078 -85.2333 172.329C-85.8004 172.921 -86.3626 173.533 -86.9198 174.165C-86.9987 174.27 -87.1123 174.32 -87.2308 174.351ZM60.2262 135.309C60.1736 135.322 60.111 135.325 60.0385 135.315C59.6975 135.298 59.4548 135.001 59.4739 134.657C59.5218 133.839 59.5647 133.002 59.5878 132.17C59.6069 131.826 59.8782 131.565 60.2192 131.583C60.5553 131.58 60.8375 131.867 60.8184 132.211C60.7952 133.043 60.7573 133.9 60.6946 134.742C60.6803 135.022 60.4831 135.242 60.2262 135.309ZM148.416 110.563C148.219 110.615 147.972 110.552 147.823 110.378C147.595 110.141 147.599 109.737 147.856 109.501C148.458 108.936 149.065 108.362 149.676 107.779C149.913 107.549 150.293 107.556 150.521 107.793C150.774 108.045 150.745 108.434 150.508 108.665C149.896 109.247 149.291 109.828 148.693 110.407C148.614 110.484 148.522 110.536 148.416 110.563ZM24.4334 142.604C24.1963 142.666 23.9441 142.583 23.8053 142.365C23.2951 141.671 22.8243 140.967 22.3733 140.258C22.1751 139.971 22.2683 139.586 22.5397 139.41C22.8309 139.229 23.2066 139.301 23.3851 139.593C23.8311 140.282 24.2969 140.966 24.7824 141.645C24.9756 141.913 24.922 142.287 24.6605 142.503C24.5881 142.55 24.5124 142.584 24.4334 142.604ZM-37.5116 157.045C-37.6038 157.069 -37.701 157.073 -37.8032 157.057C-38.5843 156.879 -39.3999 156.73 -40.2056 156.622C-40.5565 156.565 -40.7795 156.262 -40.7208 155.908C-40.677 155.579 -40.3562 155.348 -40.03 155.39C-39.1946 155.533 -38.3592 155.677 -37.5386 155.845C-37.2024 155.927 -36.9943 156.255 -37.0629 156.569C-37.1266 156.818 -37.2943 156.989 -37.5116 157.045ZM-80.9171 168.222C-81.1542 168.284 -81.4064 168.201 -81.5599 168.008C-81.7729 167.746 -81.7242 167.352 -81.4627 167.135C-80.8164 166.608 -80.1502 166.075 -79.4742 165.582C-79.1929 165.36 -78.8172 165.432 -78.6043 165.695C-78.411 165.962 -78.4795 166.361 -78.7459 166.558C-79.4022 167.046 -80.0486 167.573 -80.695 168.101C-80.764 168.162 -80.8381 168.202 -80.9171 168.222ZM154.73 104.435C154.532 104.486 154.305 104.418 154.142 104.27C153.909 104.012 153.918 103.629 154.155 103.398C154.75 102.806 155.345 102.213 155.94 101.621C156.172 101.37 156.572 101.373 156.8 101.61C157.033 101.867 157.044 102.246 156.787 102.482C156.208 103.084 155.615 103.683 155.006 104.278C154.928 104.355 154.835 104.407 154.73 104.435ZM-46.1908 156.078C-46.2435 156.091 -46.2979 156.098 -46.3539 156.099C-47.1792 156.08 -47.9945 156.101 -48.8296 156.127C-49.1656 156.129 -49.4428 155.862 -49.4434 155.524C-49.4638 155.19 -49.1827 154.884 -48.8467 154.882C-48.0116 154.856 -47.1518 154.844 -46.3265 154.863C-45.9855 154.881 -45.7281 155.153 -45.7274 155.491C-45.7368 155.79 -45.934 156.011 -46.1908 156.078ZM-73.7118 163.218C-73.9884 163.29 -74.2703 163.172 -74.3993 162.909C-74.5727 162.637 -74.4598 162.247 -74.1636 162.086C-73.4479 161.667 -72.6877 161.258 -71.9472 160.854C-71.646 160.712 -71.2801 160.829 -71.1214 161.127C-70.9825 161.43 -71.1004 161.799 -71.3966 161.961C-72.1223 162.34 -72.8628 162.744 -73.5637 163.137C-73.6098 163.178 -73.6591 163.204 -73.7118 163.218ZM-54.9017 156.664C-54.9281 156.671 -54.9495 156.67 -54.966 156.66C-55.7761 156.785 -56.6011 156.936 -57.4013 157.101C-57.7422 157.168 -58.0539 156.932 -58.1138 156.608C-58.1787 156.265 -57.9619 155.954 -57.6408 155.892C-56.8208 155.722 -55.9761 155.566 -55.1412 155.456C-54.8201 155.393 -54.5083 155.63 -54.4434 155.974C-54.4083 156.282 -54.6054 156.587 -54.9017 156.664ZM-65.7926 159.469C-66.0889 159.546 -66.4005 159.394 -66.5197 159.086C-66.6389 158.778 -66.4765 158.418 -66.1506 158.291C-65.3605 158.001 -64.5654 157.731 -63.7703 157.461C-63.4345 157.374 -63.0981 157.541 -62.9937 157.874C-62.8943 158.187 -63.0814 158.532 -63.3926 158.634C-64.1679 158.899 -64.963 159.169 -65.7333 159.454C-65.7597 159.46 -65.7794 159.465 -65.7926 159.469ZM60.1899 126.507C60.1636 126.513 60.129 126.515 60.0862 126.512C59.7551 126.535 59.4631 126.293 59.4427 125.959C59.3819 125.128 59.2765 124.287 59.1959 123.46C59.1558 123.132 59.3924 122.816 59.7184 122.774C60.0445 122.732 60.3563 122.968 60.4014 123.317C60.5068 124.158 60.5923 125.004 60.6582 125.856C60.6884 126.144 60.4863 126.43 60.1899 126.507ZM20.0113 135.025C19.7347 135.097 19.4478 134.959 19.3188 134.696C18.9567 133.922 18.634 133.137 18.3113 132.352C18.1921 132.044 18.3545 131.684 18.6607 131.563C18.9618 131.421 19.3179 131.583 19.4569 131.886C19.7548 132.655 20.0923 133.415 20.4297 134.175C20.5686 134.478 20.431 134.852 20.1298 134.994C20.0903 135.004 20.0508 135.015 20.0113 135.025ZM160.925 98.1674C160.727 98.2187 160.505 98.1705 160.336 98.0023C160.109 97.7649 160.098 97.3864 160.33 97.1356C160.909 96.5336 161.487 95.9316 162.066 95.3295C162.298 95.0788 162.693 95.0609 162.941 95.2933C163.173 95.5506 163.184 95.9291 162.952 96.1799C162.373 96.7819 161.788 97.3856 161.196 97.9911C161.121 98.0813 161.03 98.1401 160.925 98.1674ZM166.961 91.7718C166.784 91.8179 166.561 91.7697 166.398 91.6215C166.15 91.3892 166.135 90.9907 166.366 90.74C166.942 90.1247 167.511 89.5111 168.073 88.8993C168.305 88.6485 168.68 88.6358 168.928 88.8681C169.17 89.0805 169.205 89.4738 168.974 89.7246C168.402 90.3531 167.834 90.9733 167.272 91.5852C167.188 91.6705 167.08 91.741 166.961 91.7718ZM58.8542 117.809C58.8542 117.809 58.8476 117.81 58.8345 117.814C58.5134 117.876 58.1918 117.684 58.1072 117.346C58.0275 117.028 57.9495 116.716 57.8732 116.411C57.7487 115.914 57.6242 115.416 57.485 114.944C57.4003 114.606 57.5875 114.261 57.9233 114.174C58.2344 114.072 58.5807 114.279 58.6604 114.597C58.8046 115.089 58.9341 115.606 59.0586 116.103C59.1382 116.422 59.2179 116.74 59.2976 117.058C59.3772 117.376 59.1703 117.727 58.8542 117.809ZM17.1198 126.752C16.7839 126.839 16.4574 126.627 16.3777 126.309C16.1686 125.473 15.9842 124.653 15.8146 123.807C15.7547 123.484 15.9666 123.153 16.2876 123.091C16.6285 123.024 16.955 123.236 17.0199 123.579C17.1796 124.385 17.359 125.186 17.5631 126.001C17.6428 126.319 17.4359 126.67 17.1198 126.752ZM172.879 85.2375C172.681 85.2888 172.479 85.2355 172.315 85.0872C172.073 84.8748 172.037 84.4815 172.269 84.2307C172.825 83.5923 173.375 82.9623 173.921 82.3406C174.153 82.0898 174.543 82.0521 174.791 82.2844C175.033 82.4969 175.069 82.8902 174.837 83.1409C174.281 83.7793 173.731 84.4093 173.185 85.0311C173.086 85.1414 172.998 85.2068 172.879 85.2375ZM178.638 78.5749C178.441 78.6262 178.238 78.5729 178.08 78.4445C177.832 78.2122 177.802 77.8388 178.028 77.5681C178.571 76.9331 179.105 76.2933 179.631 75.6485C179.858 75.3778 180.233 75.3651 180.496 75.5724C180.758 75.7797 180.793 76.173 180.566 76.4437C180.027 77.0919 179.487 77.7335 178.944 78.3684C178.865 78.4736 178.757 78.5442 178.638 78.5749ZM56.2096 109.429C55.933 109.501 55.6214 109.349 55.5072 109.06C55.1895 108.296 54.8668 107.511 54.5146 106.776C54.3757 106.473 54.5133 106.099 54.8145 105.957C55.1354 105.81 55.4865 105.952 55.6255 106.255C55.9827 107.01 56.3103 107.814 56.628 108.579C56.7522 108.907 56.6096 109.262 56.2836 109.389C56.2606 109.409 56.2359 109.422 56.2096 109.429ZM15.784 118.054C15.7445 118.064 15.7033 118.067 15.6605 118.064C15.3295 118.087 15.0375 117.845 15.0121 117.491C14.971 116.655 14.9447 115.793 14.9431 114.946C14.9227 114.613 15.2088 114.327 15.5448 114.324C15.8808 114.322 16.158 114.589 16.1587 114.927C16.1553 115.754 16.1964 116.591 16.2325 117.408C16.2479 117.721 16.0606 117.982 15.784 118.054ZM52.3058 101.567C52.049 101.633 51.7721 101.536 51.6283 101.298C51.1971 100.583 50.7461 99.8743 50.305 99.205C50.1068 98.9176 50.1802 98.5384 50.4664 98.3371C50.7576 98.1556 51.1333 98.2276 51.3068 98.5003C51.7776 99.2042 52.2336 99.9332 52.6846 100.642C52.8433 100.94 52.7699 101.319 52.4787 101.501C52.4161 101.531 52.3585 101.553 52.3058 101.567ZM16.0838 109.249C16.0047 109.269 15.929 109.275 15.8565 109.266C15.5303 109.223 15.2876 108.926 15.3264 108.577C15.4336 107.744 15.5753 106.881 15.7269 106.058C15.7906 105.724 16.1163 105.513 16.4475 105.575C16.7787 105.637 17.0016 105.939 16.938 106.274C16.7864 107.097 16.6545 107.915 16.5424 108.727C16.5033 108.992 16.3208 109.187 16.0838 109.249ZM47.1286 94.5007C46.9311 94.552 46.6839 94.489 46.5353 94.3158C45.9609 93.7023 45.3965 93.1285 44.8173 92.5798C44.5698 92.3475 44.5542 91.949 44.7662 91.7034C44.998 91.4526 45.3933 91.4348 45.6408 91.6671C46.2448 92.2306 46.8389 92.839 47.443 93.4872C47.6707 93.7246 47.6468 94.1333 47.4051 94.3443C47.3261 94.4212 47.234 94.4734 47.1286 94.5007ZM18.1283 100.691C18.0098 100.721 17.8813 100.712 17.7676 100.678C17.4412 100.551 17.2923 100.208 17.4004 99.8839C17.7003 99.0647 18.0299 98.2802 18.404 97.5053C18.5369 97.1955 18.9073 97.0782 19.2139 97.2105C19.5255 97.3626 19.6399 97.7354 19.502 98.0254C19.1625 98.7701 18.8279 99.5347 18.5575 100.304C18.4838 100.514 18.3061 100.644 18.1283 100.691ZM40.3188 89.0658C40.1805 89.1017 40.0323 89.0978 39.8889 89.0291C39.1617 88.6458 38.41 88.3325 37.693 88.0737C37.3666 87.9466 37.198 87.6091 37.3061 87.2845C37.4142 86.9599 37.7697 86.7829 38.096 86.9101C38.8773 87.1733 39.6785 87.5162 40.4551 87.929C40.7469 88.0863 40.881 88.4539 40.7037 88.7541C40.6398 88.919 40.4769 89.0248 40.3188 89.0658ZM22.4181 93.0324C22.2402 93.0786 22.0425 93.0451 21.8842 92.9168C21.6169 92.6896 21.5865 92.3162 21.8133 92.0455C22.3754 91.349 22.9573 90.732 23.569 90.1496C23.8255 89.9136 24.211 89.9407 24.4388 90.1782C24.6715 90.4355 24.6623 90.8191 24.4058 91.0551C23.8237 91.5875 23.2813 92.1942 22.7438 92.8208C22.6452 92.9311 22.5366 93.0017 22.4181 93.0324ZM31.8854 87.3988C31.8591 87.4056 31.8327 87.4125 31.8064 87.4193C31.7504 87.4197 31.696 87.4267 31.6433 87.4404C30.9122 87.5454 30.196 87.71 29.4997 87.9543C29.1688 88.0613 28.8275 87.8745 28.728 87.5614C28.6237 87.2284 28.791 86.8884 29.1219 86.7814C29.8775 86.5218 30.6727 86.3366 31.4631 86.2163C31.5323 86.2124 31.5998 86.202 31.6657 86.1849C31.9918 86.1427 32.3035 86.3795 32.3487 86.7279C32.3838 87.0365 32.1818 87.3219 31.8854 87.3988Z" fill="#00525B"/>
</g>
</svg>
