<svg width="14" height="9" viewBox="0 0 14 9" fill="none" xmlns="http://www.w3.org/2000/svg">
<path d="M0.245575 1.72917C0.245575 1.49583 0.321963 1.29514 0.474741 1.12708C0.630297 0.959028 0.833769 0.875 1.08516 0.875H12.9122C13.165 0.875 13.3685 0.96111 13.5227 1.13333C13.6768 1.30555 13.7539 1.50555 13.7539 1.73333C13.7539 1.79167 13.6636 1.98889 13.4831 2.325L7.90391 7.90208C7.77613 8.03125 7.63793 8.13056 7.48932 8.2C7.34071 8.26944 7.17752 8.30417 6.99974 8.30417C6.82196 8.30417 6.65877 8.26944 6.51016 8.2C6.36155 8.13056 6.22266 8.03125 6.09349 7.90208L0.516407 2.325C0.440018 2.24861 0.375436 2.15903 0.322658 2.05625C0.271269 1.95486 0.245575 1.84583 0.245575 1.72917Z" fill="#6A6A6A"/>
</svg>
