<svg width="42" height="46" viewBox="0 0 42 46" fill="none" xmlns="http://www.w3.org/2000/svg">
<path fill-rule="evenodd" clip-rule="evenodd" d="M18.8643 2.25417C18.9863 2.79288 18.8893 3.35797 18.5947 3.82521C18.3002 4.29245 17.8321 4.62359 17.2935 4.74584C16.8847 4.83886 16.4795 4.94727 16.0789 5.07084C15.8175 5.15155 15.5427 5.17997 15.2703 5.1545C14.9979 5.12903 14.7332 5.05015 14.4913 4.92237C14.2494 4.7946 14.035 4.62042 13.8604 4.40979C13.6858 4.19916 13.5544 3.95621 13.4737 3.6948C13.393 3.43338 13.3645 3.15863 13.39 2.88623C13.4155 2.61383 13.4944 2.34912 13.6221 2.1072C13.7499 1.86529 13.9241 1.65091 14.1347 1.47631C14.3453 1.3017 14.5883 1.1703 14.8497 1.08959C15.3497 0.934032 15.8567 0.798615 16.3705 0.683337C16.6374 0.622643 16.9137 0.615135 17.1835 0.66124C17.4533 0.707345 17.7113 0.80616 17.9429 0.952039C18.1745 1.09792 18.3751 1.288 18.5332 1.51143C18.6913 1.73485 18.8038 1.98724 18.8643 2.25417ZM23.1351 2.25417C23.2574 1.71553 23.5885 1.24747 24.0558 0.952907C24.523 0.658343 25.0881 0.561381 25.6268 0.683337C34.906 2.7875 41.8351 11.0833 41.8351 21C41.8351 32.5063 32.506 41.8333 21.0018 41.8333C11.0831 41.8333 2.78722 34.9063 0.68305 25.6271C0.575047 25.0937 0.680033 24.5393 0.975553 24.0823C1.27107 23.6253 1.73367 23.3021 2.2644 23.1818C2.79514 23.0615 3.35188 23.1537 3.81555 23.4386C4.27922 23.7234 4.61302 24.1784 4.74555 24.7063C5.4085 27.6099 6.83743 30.2829 8.88367 32.447C10.9299 34.6112 13.5187 36.1875 16.3807 37.0119C19.2427 37.8363 22.2734 37.8788 25.1573 37.1348C28.0413 36.3908 30.6732 34.8876 32.7792 32.7816C34.8852 30.6756 36.3884 28.0436 37.1324 25.1597C37.8764 22.2757 37.834 19.2451 37.0095 16.3831C36.1851 13.5211 34.6088 10.9323 32.4447 8.88605C30.2805 6.8398 27.6075 5.41087 24.7039 4.74792C24.1652 4.62523 23.6973 4.29359 23.4031 3.82592C23.1089 3.35826 23.0125 2.79289 23.1351 2.25417ZM9.77888 5.83334C9.9652 6.03394 10.1101 6.2693 10.2054 6.52596C10.3007 6.78262 10.3445 7.05555 10.3343 7.32914C10.324 7.60273 10.2599 7.87161 10.1457 8.12042C10.0314 8.36923 9.86928 8.59308 9.66847 8.77917C9.36013 9.06389 9.06361 9.35973 8.77888 9.66667C8.40043 10.0605 7.88246 10.2899 7.33652 10.3055C6.79057 10.3212 6.26031 10.1218 5.8599 9.75039C5.4595 9.37894 5.22097 8.8651 5.19569 8.31951C5.1704 7.77393 5.36038 7.24023 5.72472 6.83334C6.07888 6.45 6.44833 6.07986 6.83305 5.72292C7.03365 5.5366 7.26902 5.39166 7.52568 5.29636C7.78234 5.20107 8.05526 5.1573 8.32885 5.16755C8.60244 5.17781 8.87133 5.24189 9.12013 5.35613C9.36894 5.47037 9.59279 5.63253 9.77888 5.83334ZM20.9997 8.5C21.5522 8.5 22.0822 8.7195 22.4729 9.1102C22.8636 9.5009 23.083 10.0308 23.083 10.5833V20.1375L28.7226 25.7771C29.1021 26.17 29.3121 26.6963 29.3074 27.2425C29.3026 27.7887 29.0835 28.3113 28.6973 28.6975C28.311 29.0838 27.7885 29.3029 27.2422 29.3077C26.696 29.3124 26.1697 29.1024 25.7768 28.7229L19.5268 22.4729C19.1361 22.0823 18.9165 21.5525 18.9164 21V10.5833C18.9164 10.0308 19.1359 9.5009 19.5266 9.1102C19.9173 8.7195 20.4472 8.5 20.9997 8.5ZM3.69347 13.475C4.22137 13.6378 4.663 14.0036 4.92124 14.4919C5.17948 14.9803 5.23319 15.5512 5.07055 16.0792C4.94698 16.4798 4.83857 16.8849 4.74555 17.2938C4.61302 17.8216 4.27922 18.2766 3.81555 18.5615C3.35188 18.8463 2.79514 18.9385 2.2644 18.8182C1.73367 18.6979 1.27107 18.3747 0.975553 17.9177C0.680033 17.4608 0.575047 16.9063 0.68305 16.3729C0.799717 15.859 0.935134 15.3521 1.0893 14.8521C1.25209 14.3242 1.61788 13.8826 2.10624 13.6243C2.59459 13.3661 3.16552 13.3124 3.69347 13.475Z" fill="#00525B"/>
</svg>
