<svg width="22" height="22" viewBox="0 0 22 22" fill="none" xmlns="http://www.w3.org/2000/svg">
<path d="M11 0.5C13.7848 0.5 16.4555 1.60625 18.4246 3.57538C20.3938 5.54451 21.5 8.21523 21.5 11C21.5 13.7848 20.3938 16.4555 18.4246 18.4246C16.4555 20.3938 13.7848 21.5 11 21.5C8.21523 21.5 5.54451 20.3938 3.57538 18.4246C1.60625 16.4555 0.5 13.7848 0.5 11C0.5 8.21523 1.60625 5.54451 3.57538 3.57538C5.54451 1.60625 8.21523 0.5 11 0.5ZM11 9.7265L8.561 7.2875C8.39212 7.11862 8.16308 7.02375 7.92425 7.02375C7.68542 7.02375 7.45638 7.11862 7.2875 7.2875C7.11862 7.45638 7.02375 7.68542 7.02375 7.92425C7.02375 8.16308 7.11862 8.39212 7.2875 8.561L9.7265 11L7.2875 13.439C7.20388 13.5226 7.13755 13.6219 7.0923 13.7311C7.04704 13.8404 7.02375 13.9575 7.02375 14.0758C7.02375 14.194 7.04704 14.3111 7.0923 14.4204C7.13755 14.5296 7.20388 14.6289 7.2875 14.7125C7.37112 14.7961 7.47039 14.8624 7.57964 14.9077C7.6889 14.953 7.80599 14.9763 7.92425 14.9763C8.04251 14.9763 8.1596 14.953 8.26886 14.9077C8.37811 14.8624 8.47738 14.7961 8.561 14.7125L11 12.2735L13.439 14.7125C13.5226 14.7961 13.6219 14.8624 13.7311 14.9077C13.8404 14.953 13.9575 14.9763 14.0758 14.9763C14.194 14.9763 14.3111 14.953 14.4204 14.9077C14.5296 14.8624 14.6289 14.7961 14.7125 14.7125C14.7961 14.6289 14.8624 14.5296 14.9077 14.4204C14.953 14.3111 14.9763 14.194 14.9763 14.0758C14.9763 13.9575 14.953 13.8404 14.9077 13.7311C14.8624 13.6219 14.7961 13.5226 14.7125 13.439L12.2735 11L14.7125 8.561C14.7961 8.47738 14.8624 8.37811 14.9077 8.26886C14.953 8.1596 14.9763 8.04251 14.9763 7.92425C14.9763 7.80599 14.953 7.6889 14.9077 7.57964C14.8624 7.47039 14.7961 7.37112 14.7125 7.2875C14.6289 7.20388 14.5296 7.13755 14.4204 7.0923C14.3111 7.04704 14.194 7.02375 14.0758 7.02375C13.9575 7.02375 13.8404 7.04704 13.7311 7.0923C13.6219 7.13755 13.5226 7.20388 13.439 7.2875L11 9.7265Z" fill="#D90101"/>
</svg>
